<svg width="18" height="31" viewBox="0 0 18 31" fill="none" xmlns="http://www.w3.org/2000/svg">
<path d="M0.671875 15.3086C0.671875 15.748 0.830078 16.1348 1.16406 16.4688L15.1035 30.0918C15.4023 30.4082 15.7891 30.5664 16.2461 30.5664C17.1602 30.5664 17.8633 29.8809 17.8633 28.9668C17.8633 28.5098 17.6699 28.123 17.3887 27.8242L4.5918 15.3086L17.3887 2.79297C17.6699 2.49414 17.8633 2.08984 17.8633 1.65039C17.8633 0.736328 17.1602 0.0507812 16.2461 0.0507812C15.7891 0.0507812 15.4023 0.208984 15.1035 0.507812L1.16406 14.1484C0.830078 14.4648 0.671875 14.8691 0.671875 15.3086Z" fill="white"/>
</svg>
