<svg width="31" height="30" viewBox="0 0 31 30" fill="none" xmlns="http://www.w3.org/2000/svg">
<g clip-path="url(#clip0)">
<path d="M6.08924 29.4229H29.5211C30.1491 29.4229 30.6156 29.0568 30.6156 28.5824C30.6156 28.2302 30.3106 27.9049 29.88 27.7829C27.4578 26.8885 26.9196 24.6253 29.2161 22.7957C29.9159 22.2401 30.6156 21.5082 30.6156 20.2208V4.54077C30.6156 1.89807 28.8573 0.542847 25.3766 0.542847H6.1969C2.73415 0.542847 0.957916 1.88453 0.957916 4.54077V25.5875C0.957916 28.0946 2.73415 29.4229 6.08924 29.4229ZM25.2689 2.22334C27.3322 2.22334 28.4087 3.05002 28.4087 4.58143V20.0039C28.4087 21.1288 27.6014 21.7386 26.0943 21.7386H7.21957V2.22334H25.2689ZM3.18269 22.4705V4.58143C3.18269 3.30751 3.91828 2.52148 5.35364 2.29109V21.7793C4.47449 21.8741 3.77476 22.1181 3.18269 22.4705ZM6.21483 27.7423C4.25916 27.7423 3.18269 26.9427 3.18269 25.5604C3.18269 24.2458 4.36683 23.4056 6.30456 23.4056H25.1254C25.5381 23.4056 25.8789 23.3785 26.2019 23.3107C25.1254 24.8828 25.3945 26.5361 26.7581 27.7423H6.21483Z" fill="#999999"/>
<path d="M12.8547 18.0285H17.1069C21.7251 18.0285 24.4379 15.8574 24.4379 12.1577C24.4379 8.46601 21.7143 6.29492 17.1069 6.29492H12.8547C12.2626 6.29492 11.8858 6.58765 11.8858 7.05114V17.2723C11.8858 17.7358 12.2626 18.0285 12.8547 18.0285ZM13.8236 16.7112V7.61221H16.9777C20.5086 7.61221 22.4571 9.23849 22.4571 12.1739C22.4571 15.0849 20.4979 16.7112 16.9777 16.7112H13.8236Z" fill="#999999"/>
</g>
<defs>
<clipPath id="clip0">
<rect width="29.7632" height="29.1429" fill="white" transform="translate(0.957916 0.542847)"/>
</clipPath>
</defs>
</svg>
