<svg width="31" height="30" viewBox="0 0 31 30" fill="none" xmlns="http://www.w3.org/2000/svg">
<g clip-path="url(#clip0)">
<path d="M6.08933 29.4229H29.5212C30.1492 29.4229 30.6157 29.0568 30.6157 28.5824C30.6157 28.2302 30.3107 27.9049 29.8801 27.7829C27.4579 26.8885 26.9197 24.6253 29.2162 22.7957C29.916 22.2401 30.6157 21.5082 30.6157 20.2208V4.54077C30.6157 1.89807 28.8574 0.542847 25.3767 0.542847H6.19699C2.73424 0.542847 0.958008 1.88453 0.958008 4.54077V25.5875C0.958008 28.0946 2.73424 29.4229 6.08933 29.4229ZM25.269 2.22334C27.3323 2.22334 28.4088 3.05002 28.4088 4.58143V20.0039C28.4088 21.1288 27.6014 21.7386 26.0944 21.7386H7.21967V2.22334H25.269ZM3.18279 22.4705V4.58143C3.18279 3.30751 3.91838 2.52148 5.35374 2.29109V21.7793C4.47458 21.8741 3.77485 22.1181 3.18279 22.4705ZM6.21492 27.7423C4.25926 27.7423 3.18279 26.9427 3.18279 25.5604C3.18279 24.2458 4.36692 23.4056 6.30465 23.4056H25.1255C25.5382 23.4056 25.879 23.3785 26.202 23.3107C25.1255 24.8828 25.3946 26.5361 26.7582 27.7423H6.21492Z" fill="#FF9900"/>
<path d="M12.8549 18.0285H17.107C21.7252 18.0285 24.438 15.8574 24.438 12.1577C24.438 8.46601 21.7145 6.29492 17.107 6.29492H12.8549C12.2628 6.29492 11.886 6.58765 11.886 7.05114V17.2723C11.886 17.7358 12.2628 18.0285 12.8549 18.0285ZM13.8237 16.7112V7.61221H16.9779C20.5088 7.61221 22.4573 9.23849 22.4573 12.1739C22.4573 15.0849 20.498 16.7112 16.9779 16.7112H13.8237Z" fill="#FF9900"/>
</g>
<defs>
<clipPath id="clip0">
<rect width="29.7632" height="29.1429" fill="white" transform="translate(0.958008 0.542847)"/>
</clipPath>
</defs>
</svg>
