<svg width="76" height="69" viewBox="0 0 76 69" fill="none" xmlns="http://www.w3.org/2000/svg">
<path d="M18.9132 43.3552C17.8718 44.3966 16.1834 44.3966 15.142 43.3552C14.1006 42.3138 14.1006 40.6254 15.142 39.584L39.655 15.071C40.6964 14.0296 42.3848 14.0296 43.4262 15.071C44.4676 16.1124 44.4676 17.8008 43.4262 18.8422L18.9132 43.3552Z" fill="white"/>
<path d="M15.1425 18.8422C14.1011 17.8008 14.1011 16.1123 15.1425 15.0709C16.1839 14.0295 17.8723 14.0295 18.9137 15.0709L43.4267 39.584C44.4681 40.6254 44.4681 42.3138 43.4267 43.3552C42.3853 44.3966 40.6969 44.3966 39.6555 43.3552L15.1425 18.8422Z" fill="white"/>
</svg>
