<svg width="33" height="32" viewBox="0 0 33 32" fill="none" xmlns="http://www.w3.org/2000/svg">
<path d="M9.01923 7.28244C8.55949 6.82057 7.8136 6.82057 7.35386 7.28244C5.6469 8.99594 4.80793 11.3829 5.05174 13.8318C5.11257 14.4419 5.62455 14.8966 6.22245 14.8966C6.26173 14.8966 6.30133 14.8946 6.34062 14.8907C6.98801 14.8257 7.46027 14.2459 7.39552 13.5965C7.22199 11.8562 7.81404 10.164 9.01923 8.95413C9.47935 8.49269 9.47935 7.74388 9.01923 7.28244Z" fill="white"/>
<path d="M13.6832 0C6.25823 0 0.21756 6.06382 0.21756 13.5173C0.21756 20.9707 6.25823 27.0345 13.6832 27.0345C21.1082 27.0345 27.1489 20.9707 27.1489 13.5173C27.1489 6.06382 21.1081 0 13.6832 0ZM13.6832 24.67C7.55694 24.67 2.5731 19.667 2.5731 13.5173C2.5731 7.36751 7.55694 2.36456 13.6832 2.36456C19.8091 2.36456 24.7933 7.36751 24.7933 13.5173C24.7933 19.667 19.8095 24.67 13.6832 24.67Z" fill="white"/>
<path d="M31.7503 29.9818L23.192 21.3907C22.7319 20.9288 21.9867 20.9288 21.5266 21.3907C21.0665 21.8522 21.0665 22.601 21.5266 23.0625L30.085 31.6536C30.315 31.8845 30.6161 32 30.9177 32C31.2192 32 31.5203 31.8845 31.7503 31.6536C32.2104 31.1921 32.2104 30.4433 31.7503 29.9818Z" fill="white"/>
</svg>
