<svg width="20" height="21" viewBox="0 0 20 21" fill="none" xmlns="http://www.w3.org/2000/svg">
<path d="M10.2021 20.4319C10.6357 20.4319 10.999 20.0803 10.999 19.6467V11.5022H18.9091C19.331 11.5022 19.6943 11.1389 19.6943 10.7053C19.6943 10.2717 19.331 9.90845 18.9091 9.90845H10.999V1.7522C10.999 1.3186 10.6357 0.967041 10.2021 0.967041C9.76849 0.967041 9.40521 1.3186 9.40521 1.7522V9.90845H1.50677C1.07318 9.90845 0.7099 10.2717 0.7099 10.7053C0.7099 11.1389 1.07318 11.5022 1.50677 11.5022H9.40521V19.6467C9.40521 20.0803 9.76849 20.4319 10.2021 20.4319Z" fill="#999999"/>
</svg>
