<svg width="21" height="22" viewBox="0 0 21 22" fill="none" xmlns="http://www.w3.org/2000/svg">
<path d="M10.6453 10.8459C13.3758 10.8459 15.5672 8.4436 15.5672 5.45532C15.5672 2.53735 13.364 0.193604 10.6453 0.193604C7.93825 0.193604 5.71169 2.56079 5.72341 5.46704C5.73513 8.45532 7.91482 10.8459 10.6453 10.8459ZM10.6453 9.47485C8.73513 9.47485 7.17653 7.72876 7.17653 5.46704C7.1531 3.29907 8.73513 1.57642 10.6453 1.57642C12.5554 1.57642 14.114 3.27563 14.114 5.45532C14.114 7.70532 12.5672 9.47485 10.6453 9.47485ZM3.06325 21.592H18.1922C19.9148 21.592 20.7234 21.0413 20.7234 19.8577C20.7234 16.7991 16.8797 12.4514 10.6336 12.4514C4.37575 12.4514 0.532003 16.7991 0.532003 19.8577C0.532003 21.0413 1.35232 21.592 3.06325 21.592ZM2.69997 20.2092C2.16091 20.2092 1.98513 20.0803 1.98513 19.7053C1.98513 17.4905 5.11403 13.8225 10.6336 13.8225C16.1414 13.8225 19.282 17.4905 19.282 19.7053C19.282 20.0803 19.0945 20.2092 18.5672 20.2092H2.69997Z" fill="#999999"/>
</svg>
