<svg width="22" height="21" viewBox="0 0 22 21" fill="none" xmlns="http://www.w3.org/2000/svg">
<path d="M9.07422 16.578C10.8921 16.578 12.5688 15.9803 13.9219 14.976L19.2344 20.2968C19.4419 20.496 19.7158 20.6039 20.0063 20.6039C20.6372 20.6039 21.0771 20.1224 21.0771 19.5165C21.0771 19.2343 20.9775 18.9603 20.77 18.7528L15.4824 13.4569C16.5781 12.0707 17.2339 10.3192 17.2339 8.42664C17.2339 3.93591 13.5649 0.266968 9.07422 0.266968C4.6001 0.266968 0.922852 3.92761 0.922852 8.42664C0.922852 12.9091 4.5918 16.578 9.07422 16.578ZM9.07422 15.0673C5.43848 15.0673 2.43359 12.0624 2.43359 8.42664C2.43359 4.78259 5.43848 1.77771 9.07422 1.77771C12.7183 1.77771 15.7231 4.78259 15.7231 8.42664C15.7231 12.0624 12.7183 15.0673 9.07422 15.0673Z" fill="#999999"/>
</svg>
