<svg width="25" height="30" viewBox="0 0 25 30" fill="none" xmlns="http://www.w3.org/2000/svg">
<path d="M12.5 0.865723C9.51101 0.865723 7.09999 3.45533 7.09999 6.66572V7.82572H2.83062L2.77999 8.33322L0.61999 28.6332L0.55249 29.2857H24.4475L24.38 28.6332L22.22 8.33322L22.1694 7.82572H17.9V6.66572C17.9 3.45533 15.489 0.865723 12.5 0.865723ZM12.5 2.02572C14.911 2.02572 16.82 4.07611 16.82 6.66572V7.82572H8.17999V6.66572C8.17999 4.07611 10.089 2.02572 12.5 2.02572ZM3.80937 8.98572H7.09999V10.3088C6.77726 10.5105 6.55999 10.8775 6.55999 11.3057C6.55999 11.9469 7.04304 12.4657 7.63999 12.4657C8.23694 12.4657 8.71999 11.9469 8.71999 11.3057C8.71999 10.8775 8.50272 10.5105 8.17999 10.3088V8.98572H16.82V10.3088C16.4973 10.5105 16.28 10.8775 16.28 11.3057C16.28 11.9469 16.763 12.4657 17.36 12.4657C17.9569 12.4657 18.44 11.9469 18.44 11.3057C18.44 10.8775 18.2227 10.5105 17.9 10.3088V8.98572H21.1906L23.2325 28.1257H1.76749L3.80937 8.98572Z" fill="#999999"/>
</svg>
