<svg width="27" height="30" viewBox="0 0 27 30" fill="none" xmlns="http://www.w3.org/2000/svg">
<g clip-path="url(#clip0)">
<path d="M13.5 0.865723C10.511 0.865723 8.09999 3.45533 8.09999 6.66572V7.82572H3.83062L3.77999 8.33322L1.61999 28.6332L1.55249 29.2857H25.4475L25.38 28.6332L23.22 8.33322L23.1694 7.82572H18.9V6.66572C18.9 3.45533 16.489 0.865723 13.5 0.865723ZM13.5 2.02572C15.911 2.02572 17.82 4.07611 17.82 6.66572V7.82572H9.17999V6.66572C9.17999 4.07611 11.089 2.02572 13.5 2.02572ZM4.80937 8.98572H8.09999V10.3088C7.77726 10.5105 7.55999 10.8775 7.55999 11.3057C7.55999 11.9469 8.04304 12.4657 8.63999 12.4657C9.23694 12.4657 9.71999 11.9469 9.71999 11.3057C9.71999 10.8775 9.50272 10.5105 9.17999 10.3088V8.98572H17.82V10.3088C17.4973 10.5105 17.28 10.8775 17.28 11.3057C17.28 11.9469 17.763 12.4657 18.36 12.4657C18.9569 12.4657 19.44 11.9469 19.44 11.3057C19.44 10.8775 19.2227 10.5105 18.9 10.3088V8.98572H22.1906L24.2325 28.1257H2.76749L4.80937 8.98572Z" fill="#828282"/>
</g>
<defs>
<clipPath id="clip0">
<rect width="27" height="29" fill="white" transform="translate(0 0.285767)"/>
</clipPath>
</defs>
</svg>
