<svg width="25" height="18" viewBox="0 0 25 18" fill="none" xmlns="http://www.w3.org/2000/svg">
<path d="M8.72412 17.4736C13.3477 17.4736 17.1909 13.6387 17.1909 9.00684C17.1909 4.3833 13.3394 0.540039 8.71582 0.540039C4.08398 0.540039 0.257324 4.3833 0.257324 9.00684C0.257324 13.6387 4.09229 17.4736 8.72412 17.4736ZM8.72412 16.0625C4.80615 16.0625 1.67676 12.9248 1.67676 9.00684C1.67676 5.09717 4.79785 1.95117 8.71582 1.95117C12.6255 1.95117 15.7715 5.09717 15.7798 9.00684C15.7881 12.9248 12.6338 16.0625 8.72412 16.0625ZM4.37451 9.90332H8.71582C9.03955 9.90332 9.29688 9.6543 9.29688 9.32227V3.72754C9.29688 3.40381 9.03955 3.15479 8.71582 3.15479C8.39209 3.15479 8.14307 3.40381 8.14307 3.72754V8.74951H4.37451C4.05078" fill="white"/>
</svg>
